<svg xmlns="http://www.w3.org/2000/svg" xmlns:xlink="http://www.w3.org/1999/xlink" width="1080" zoomAndPan="magnify" viewBox="0 0 810 809.999993" height="1080" preserveAspectRatio="xMidYMid meet" version="1.2"><defs><clipPath id="b96e3ed6f5"><path d="M 55.46875 328 L 754.46875 328 L 754.46875 688.441406 L 55.46875 688.441406 Z M 55.46875 328 "/></clipPath><clipPath id="a7cfd0cc76"><path d="M 259 121.441406 L 551 121.441406 L 551 415 L 259 415 Z M 259 121.441406 "/></clipPath></defs><g id="4ba94e109b"><g clip-rule="nonzero" clip-path="url(#b96e3ed6f5)"><path style=" stroke:none;fill-rule:nonzero;fill:#204a7f;fill-opacity:1;" d="M 733.761719 576.542969 C 711.707031 575.097656 660.601562 573.25 604.160156 581.390625 C 563.453125 587.257812 527.9375 597.230469 498.441406 611.050781 C 529.511719 594.230469 562.507812 583.554688 590.847656 576.816406 C 654.964844 561.535156 709.753906 562.449219 710.300781 562.46875 L 720.851562 562.675781 L 720.851562 423.585938 C 725.117188 423.007812 729.417969 422.472656 733.761719 422 Z M 472.550781 602 C 510.078125 572.265625 575.726562 535.683594 677.789062 526.816406 L 687.242188 525.988281 L 687.242188 387.964844 C 691.5 387.382812 695.800781 386.839844 700.152344 386.382812 L 700.152344 541.820312 C 680.652344 542.257812 636.5 544.648438 586.054688 556.660156 C 546.675781 566.03125 511.707031 579.367188 482.109375 596.289062 C 478.867188 598.148438 475.679688 600.058594 472.550781 602 Z M 415.324219 629.164062 L 415.324219 487.859375 C 419.609375 480.46875 436.359375 453.996094 470.730469 426.296875 C 506.570312 397.40625 569.25 361.40625 666.539062 350.75 L 666.539062 507.089844 C 621.855469 511.785156 580.378906 521.9375 543.09375 537.320312 C 511.023438 550.535156 481.964844 567.632812 456.738281 588.132812 C 438.535156 602.945312 424.976562 617.332031 415.324219 629.164062 Z M 394.609375 629.164062 C 384.960938 617.332031 371.398438 602.945312 353.195312 588.132812 C 327.972656 567.632812 298.914062 550.535156 266.84375 537.320312 C 229.558594 521.9375 188.082031 511.785156 143.398438 507.089844 L 143.398438 350.75 C 240.6875 361.40625 303.367188 397.40625 339.207031 426.296875 C 373.578125 453.996094 390.328125 480.46875 394.609375 487.859375 Z M 327.824219 596.289062 C 298.226562 579.367188 263.253906 566.03125 223.886719 556.660156 C 173.4375 544.648438 129.289062 542.257812 109.789062 541.820312 L 109.789062 386.382812 C 114.132812 386.839844 118.4375 387.382812 122.695312 387.964844 L 122.695312 525.988281 L 132.144531 526.816406 C 234.207031 535.683594 299.855469 572.265625 337.386719 602 C 334.261719 600.058594 331.074219 598.148438 327.824219 596.289062 Z M 205.777344 581.390625 C 149.335938 573.25 98.226562 575.097656 76.171875 576.542969 L 76.171875 422 C 80.519531 422.472656 84.824219 423.007812 89.082031 423.585938 L 89.082031 562.675781 L 99.640625 562.46875 C 100.179688 562.449219 154.972656 561.535156 219.089844 576.816406 C 247.429688 583.554688 280.425781 594.230469 311.492188 611.050781 C 282 597.230469 246.480469 587.257812 205.777344 581.390625 Z M 743.214844 400.261719 C 735.695312 400.914062 728.222656 401.742188 720.851562 402.707031 L 720.851562 363.652344 L 709.601562 364.632812 C 702.074219 365.292969 694.601562 366.125 687.242188 367.078125 L 687.242188 328.039062 L 675.996094 329.011719 C 627.707031 333.207031 582.980469 343.683594 543.09375 360.140625 C 511.023438 373.375 481.964844 390.472656 456.738281 410.972656 C 430.679688 432.148438 414.15625 452.507812 404.96875 465.667969 C 395.78125 452.507812 379.257812 432.148438 353.195312 410.972656 C 327.972656 390.472656 298.914062 373.375 266.84375 360.140625 C 226.953125 343.683594 182.226562 333.207031 133.941406 329.011719 L 122.695312 328.039062 L 122.695312 367.078125 C 115.335938 366.125 107.859375 365.292969 100.335938 364.632812 L 89.082031 363.652344 L 89.082031 402.707031 C 81.710938 401.742188 74.238281 400.914062 66.722656 400.261719 L 55.46875 399.277344 L 55.46875 599.207031 C 55.46875 599.207031 55.496094 599.207031 55.539062 599.195312 L 66.863281 598.039062 C 67.445312 597.988281 118.191406 592.976562 179.351562 599.042969 C 179.492188 599.0625 179.640625 599.082031 179.78125 599.085938 C 187.460938 599.859375 195.300781 600.796875 203.226562 601.949219 C 230.019531 605.824219 260.113281 612.457031 288.375 623.746094 C 327.902344 637.765625 368.0625 658.386719 404.96875 688.417969 C 441.871094 658.386719 482.035156 637.765625 521.558594 623.746094 C 549.824219 612.457031 579.917969 605.824219 606.710938 601.949219 C 614.636719 600.796875 622.472656 599.859375 630.160156 599.085938 C 630.296875 599.082031 630.445312 599.0625 630.585938 599.042969 C 691.75 592.976562 742.492188 597.988281 743.074219 598.039062 L 754.320312 599.1875 L 754.394531 599.195312 C 754.4375 599.207031 754.46875 599.207031 754.46875 599.207031 L 754.46875 399.277344 L 743.214844 400.261719 "/></g><g clip-rule="nonzero" clip-path="url(#a7cfd0cc76)"><path style=" stroke:none;fill-rule:nonzero;fill:#c10e81;fill-opacity:1;" d="M 550.269531 121.464844 C 419.324219 184.925781 406.0625 363.207031 405.003906 414.542969 L 404.96875 327.894531 L 404.921875 414.519531 C 403.867188 363.148438 390.597656 184.921875 259.667969 121.464844 C 261.0625 121.761719 331.632812 137.148438 376.023438 182.246094 C 391.929688 198.398438 418.007812 198.398438 433.914062 182.246094 C 478.304688 137.148438 548.871094 121.761719 550.269531 121.464844 "/></g><path style=" stroke:none;fill-rule:nonzero;fill:#448dd2;fill-opacity:1;" d="M 426.683594 410.890625 C 426.683594 410.890625 506.804688 269.816406 668.558594 285.492188 C 668.558594 285.492188 615.652344 261.972656 547.621094 264.589844 C 479.59375 267.203125 508.316406 177.070312 547.621094 161.386719 C 547.621094 161.386719 461.460938 167.925781 426.683594 410.890625 "/><path style=" stroke:none;fill-rule:nonzero;fill:#448dd2;fill-opacity:1;" d="M 577.867188 224.59375 C 577.867188 238.71875 566.414062 250.167969 552.289062 250.167969 C 538.164062 250.167969 526.710938 238.71875 526.710938 224.59375 C 526.710938 210.46875 538.164062 199.019531 552.289062 199.019531 C 566.414062 199.019531 577.867188 210.46875 577.867188 224.59375 "/><path style=" stroke:none;fill-rule:nonzero;fill:#f39d0f;fill-opacity:1;" d="M 383.253906 410.890625 C 383.253906 410.890625 303.132812 269.816406 141.378906 285.492188 C 141.378906 285.492188 194.289062 261.972656 262.316406 264.589844 C 330.34375 267.203125 301.621094 177.070312 262.316406 161.386719 C 262.316406 161.386719 348.480469 167.925781 383.253906 410.890625 "/><path style=" stroke:none;fill-rule:nonzero;fill:#f39d0f;fill-opacity:1;" d="M 232.070312 224.59375 C 232.070312 238.71875 243.519531 250.167969 257.644531 250.167969 C 271.769531 250.167969 283.222656 238.71875 283.222656 224.59375 C 283.222656 210.46875 271.769531 199.019531 257.644531 199.019531 C 243.519531 199.019531 232.070312 210.46875 232.070312 224.59375 "/><path style=" stroke:none;fill-rule:nonzero;fill:#c10e81;fill-opacity:1;" d="M 430.546875 152.3125 C 430.546875 166.433594 419.09375 177.882812 404.96875 177.882812 C 390.84375 177.882812 379.390625 166.433594 379.390625 152.3125 C 379.390625 138.1875 390.84375 126.738281 404.96875 126.738281 C 419.09375 126.738281 430.546875 138.1875 430.546875 152.3125 "/></g></svg>